<svg width="50" height="50" viewBox="0 0 50 50" fill="none" xmlns="http://www.w3.org/2000/svg">
<g clip-path="url(#clip0)">
<path d="M29.8726 36.162C29.2271 35.5171 28.3688 35.1618 27.4559 35.1618C26.543 35.1618 25.6844 35.517 25.039 36.1619L22.9423 38.2563C22.7679 38.4305 22.4899 38.4463 22.2956 38.2928C19.2614 35.893 14.1216 30.7585 11.7196 27.7275C11.5656 27.5333 11.5813 27.2553 11.7559 27.0808L13.8523 24.9866C14.4979 24.3417 14.8533 23.4842 14.8533 22.5722C14.8533 21.6602 14.4977 20.8028 13.8522 20.1579L9.43274 15.743C8.78723 15.098 7.92893 14.7429 7.01594 14.7429C6.10285 14.7429 5.24455 15.098 4.59905 15.743L3.57649 16.7644C-0.583669 20.9203 -1.18572 27.4503 2.14485 32.2912C6.35637 38.4129 11.5989 43.6501 17.7269 47.8573C19.8221 49.296 22.2332 50 24.6318 50C27.7807 49.9999 30.9081 48.7861 33.2695 46.4271L34.292 45.4056C34.9375 44.7607 35.2931 43.9033 35.2931 42.9912C35.2931 42.0792 34.9375 41.2218 34.292 40.5768L29.8726 36.162ZM32.2204 43.3362L31.1979 44.3577C28.0362 47.5163 23.0687 47.9739 19.3863 45.4453C13.5553 41.442 8.56682 36.4586 4.5594 30.6335C2.02844 26.955 2.48645 21.9924 5.64817 18.8339L6.67073 17.8124C6.79514 17.6881 6.94055 17.6696 7.01604 17.6696C7.09143 17.6696 7.23684 17.6881 7.36125 17.8124L11.7807 22.2273C11.9051 22.3516 11.9238 22.4969 11.9238 22.5724C11.9238 22.6477 11.9052 22.7928 11.7808 22.9172L9.6844 25.0114C8.45803 26.2365 8.34553 28.1851 9.42258 29.5442C11.9333 32.7124 17.3057 38.0791 20.4772 40.5875C21.8377 41.6633 23.7879 41.5508 25.0139 40.3259L27.1106 38.2314C27.2349 38.1072 27.3802 38.0887 27.4557 38.0887C27.5312 38.0887 27.6766 38.1072 27.801 38.2315L32.2204 42.6465C32.3448 42.7708 32.3634 42.916 32.3634 42.9914C32.3634 43.0667 32.3449 43.2119 32.2204 43.3362Z" fill="#917D7C" fill-opacity="0.7"/>
<path d="M45.4463 4.37842C42.606 1.58105 38.8311 0.0261719 34.8169 0.000390625C34.7828 0.000195313 34.7495 0 34.7154 0C30.7384 0 26.9834 1.50469 24.1332 4.24307C21.6079 6.66924 19.9822 9.91221 19.5558 13.3748C19.1639 16.5569 19.7909 19.806 21.3243 22.5974L20.2607 26.1866C20.0093 27.0353 20.2384 27.9551 20.8589 28.5868C21.4794 29.2186 22.3957 29.4653 23.2497 29.2303L26.7411 28.2701C29.1964 29.7754 31.9565 30.5123 34.7055 30.5123C38.6514 30.5123 42.5725 28.9923 45.5245 26.0432C48.425 23.1457 50.0143 19.2932 49.9998 15.1953C49.9854 11.0979 48.3683 7.25635 45.4463 4.37842V4.37842ZM43.453 23.9737C41.0662 26.3582 37.8974 27.5869 34.7075 27.5867C32.3107 27.5865 29.9018 26.8927 27.8054 25.474C27.5604 25.3082 27.2738 25.2223 26.9838 25.2223C26.8538 25.2223 26.723 25.2396 26.5951 25.2748L23.3194 26.1756L24.3121 22.8256C24.4294 22.4298 24.3739 22.0028 24.1593 21.6501C22.7268 19.296 22.1247 16.4841 22.4637 13.7322C22.8132 10.8943 24.0928 8.34248 26.1641 6.35244C28.4655 4.14141 31.4996 2.92666 34.7159 2.92666C34.7433 2.92666 34.7708 2.92676 34.7981 2.92695C38.0447 2.94785 41.0959 4.20352 43.3895 6.4625C45.7515 8.78877 47.0586 11.8938 47.0703 15.2056C47.0819 18.5179 45.7974 21.6318 43.453 23.9737V23.9737Z" fill="#917D7C" fill-opacity="0.7"/>
<path d="M37.8978 8.76467C37.8923 8.76467 37.8871 8.76467 37.8817 8.76467C36.7302 8.76467 35.6233 9.15715 34.7332 9.84514C33.8434 9.14856 32.7328 8.74846 31.5755 8.74475C31.5699 8.74475 31.5646 8.74475 31.5589 8.74475C30.1877 8.74475 28.8983 9.27708 27.9268 10.2445C26.9549 11.2123 26.4197 12.499 26.4197 13.8676C26.4197 19.9663 33.9716 22.5478 34.2931 22.6547C34.4433 22.7046 34.5996 22.7296 34.7557 22.7296C34.9134 22.7296 35.0711 22.7042 35.2227 22.6533C35.5411 22.5463 43.0211 19.9635 43.0211 13.9107C43.0212 11.0821 40.7229 8.77356 37.8978 8.76467V8.76467ZM34.7533 19.6984C33.362 19.1239 29.3494 17.1798 29.3494 13.8677C29.3494 13.2826 29.5788 12.732 29.9951 12.3173C30.4134 11.9007 30.9687 11.6716 31.5591 11.6716H31.5663C32.3537 11.674 33.0633 12.0814 33.4646 12.761C33.7271 13.2057 34.2048 13.4793 34.7217 13.4809H34.7263C35.2414 13.4809 35.7188 13.2106 35.9833 12.7689C36.3876 12.0939 37.0965 11.6915 37.8812 11.6915H37.8885C39.1032 11.6953 40.0916 12.6909 40.0916 13.9108C40.0916 17.1878 36.1302 19.1244 34.7533 19.6984V19.6984Z" fill="#917D7C" fill-opacity="0.7"/>
</g>
<defs>
<clipPath id="clip0">
<rect width="50" height="50" fill="white"/>
</clipPath>
</defs>
</svg>
