<svg width="50" height="50" viewBox="0 0 50 50" fill="none" xmlns="http://www.w3.org/2000/svg">
<g clip-path="url(#clip0)">
<path d="M45.3339 37.0053L33.7104 30.3473C33.9159 29.8494 34.0692 29.322 34.1633 28.7709C34.1633 28.7709 36.0352 18.0624 36.0352 17.6758V15.5532C37.1383 15.2934 38.1552 14.7403 38.9872 13.9339C40.1747 12.7832 40.8591 11.2406 40.9143 9.59023C40.971 7.89434 40.317 6.21162 39.1197 4.97383C37.9235 3.73682 36.2652 3.02734 34.5703 3.02734C33.7747 3.02734 32.9969 3.17412 32.2687 3.45791C30.5026 1.29727 27.826 0 25 0C22.174 0 19.4974 1.29727 17.7313 3.45791C17.0031 3.17412 16.2253 3.02734 15.4297 3.02734C13.7348 3.02734 12.0765 3.73682 10.8802 4.97383C9.68291 6.21172 9.02891 7.89434 9.08564 9.59023C9.14082 11.2405 9.82519 12.7831 11.0127 13.9339C11.8448 14.7403 12.8617 15.2934 13.9647 15.5532V17.6758C13.9647 18.0625 15.8366 28.771 15.8366 28.771C15.9307 29.3221 16.084 29.8494 16.2895 30.3473L4.66611 37.0053C1.78799 38.6538 0 41.7385 0 45.0554V48.5352C0 49.3441 0.655859 50 1.46484 50H48.5352C49.3441 50 50 49.3441 50 48.5352V45.0554C50 41.7385 48.212 38.6538 45.3339 37.0053ZM12.9861 7.01045C13.6431 6.33115 14.5109 5.95703 15.4297 5.95703C16.1236 5.95703 16.7918 6.16416 17.3619 6.55596C17.6961 6.78584 18.1106 6.8666 18.5067 6.7793C18.9028 6.69199 19.245 6.44453 19.4519 6.09561C20.6091 4.14277 22.7352 2.92969 25 2.92969C27.2648 2.92969 29.3909 4.14277 30.5481 6.09561C30.755 6.44453 31.0972 6.69199 31.4933 6.7793C31.8891 6.8665 32.3038 6.78584 32.6381 6.55596C33.2082 6.16416 33.8764 5.95703 34.5703 5.95703C35.4891 5.95703 36.3569 6.33115 37.0139 7.01045C37.6717 7.69072 38.017 8.57207 37.9863 9.49219C37.9243 11.3431 36.4238 12.793 34.5703 12.793C33.7613 12.793 33.1055 13.4488 33.1055 14.2578V17.6758C33.1055 17.945 32.8864 18.1641 32.6172 18.1641H17.3828C17.1136 18.1641 16.8945 17.945 16.8945 17.6758V14.2578C16.8945 13.4488 16.2387 12.793 15.4297 12.793C13.5762 12.793 12.0756 11.3431 12.0137 9.49228C11.9829 8.57207 12.3282 7.69072 12.9861 7.01045V7.01045ZM31.2754 28.2781C30.914 30.3963 29.092 31.9336 26.9434 31.9336H23.0566C20.908 31.9336 19.0861 30.3963 18.7247 28.2782L17.4988 21.0938H32.5011L31.2754 28.2781ZM47.0703 47.0703H2.92969V45.0554C2.92969 42.7859 4.15303 40.6754 6.12236 39.5474L17.9353 32.7809C19.2631 34.0785 21.0761 34.8633 23.0566 34.8633H26.9434C28.9239 34.8633 30.7369 34.0785 32.0646 32.7809L43.8775 39.5474C45.847 40.6755 47.0703 42.7859 47.0703 45.0554V47.0703Z" fill="#917D7C" fill-opacity="0.7"/>
<path d="M20.5566 39.3555C21.3657 39.3555 22.0215 38.6996 22.0215 37.8906C22.0215 37.0816 21.3657 36.4258 20.5566 36.4258C19.7476 36.4258 19.0918 37.0816 19.0918 37.8906C19.0918 38.6996 19.7476 39.3555 20.5566 39.3555Z" fill="#917D7C" fill-opacity="0.7"/>
<path d="M29.4434 39.3555C30.2524 39.3555 30.9082 38.6996 30.9082 37.8906C30.9082 37.0816 30.2524 36.4258 29.4434 36.4258C28.6343 36.4258 27.9785 37.0816 27.9785 37.8906C27.9785 38.6996 28.6343 39.3555 29.4434 39.3555Z" fill="#917D7C" fill-opacity="0.7"/>
<path d="M20.5566 45.2148C21.3657 45.2148 22.0215 44.559 22.0215 43.75C22.0215 42.941 21.3657 42.2852 20.5566 42.2852C19.7476 42.2852 19.0918 42.941 19.0918 43.75C19.0918 44.559 19.7476 45.2148 20.5566 45.2148Z" fill="#917D7C" fill-opacity="0.7"/>
<path d="M29.4434 45.2148C30.2524 45.2148 30.9082 44.559 30.9082 43.75C30.9082 42.941 30.2524 42.2852 29.4434 42.2852C28.6343 42.2852 27.9785 42.941 27.9785 43.75C27.9785 44.559 28.6343 45.2148 29.4434 45.2148Z" fill="#917D7C" fill-opacity="0.7"/>
<path d="M29.1975 27.574C29.6026 26.8738 29.3636 25.9778 28.6633 25.5726C27.9636 25.1676 27.0671 25.4065 26.6618 26.1068C26.3192 26.6987 25.6825 27.0662 24.9999 27.0662C24.3173 27.0662 23.6806 26.6986 23.3381 26.1067C22.9328 25.4063 22.0366 25.1674 21.3365 25.5724C20.6363 25.9776 20.3972 26.8737 20.8022 27.5739C21.6668 29.0679 23.2751 29.9959 24.9998 29.9959C26.7246 29.9959 28.3331 29.0679 29.1975 27.574Z" fill="#917D7C" fill-opacity="0.7"/>
</g>
<defs>
<clipPath id="clip0">
<rect width="50" height="50" fill="white"/>
</clipPath>
</defs>
</svg>
