<svg width="46" height="50" viewBox="0 0 46 50" fill="none" xmlns="http://www.w3.org/2000/svg">
<path d="M45.1545 12.1228C44.4672 7.3535 42.9209 3.4782 40.683 0.915997C39.9684 0.097833 38.8403 -0.205976 37.8091 0.142169C36.7826 0.488751 36.0726 1.40965 36.0005 2.48826C35.9153 3.76453 35.5942 5.70252 33.7984 7.78768C31.844 10.0569 28.4783 12.1326 23.7947 13.9568C22.1375 14.6022 20.6102 15.4308 19.2402 16.4148C18.2763 15.6334 17.177 14.9601 15.962 14.4262C8.42494 11.1138 8.34838 7.93504 8.31957 6.73826C8.2973 5.81453 7.72494 5.00242 6.86127 4.66912C5.99467 4.33465 5.02143 4.55291 4.38207 5.22488C2.73129 6.95975 1.53129 9.61893 0.911856 12.9149C0.331094 16.0051 0.324453 19.4363 0.893399 22.5768C1.69604 27.0079 4.5225 31.1444 8.26977 33.3724C9.92719 34.3579 11.6629 34.897 13.3555 34.9746C13.9871 36.3297 14.8562 37.5691 15.9369 38.6624C14.1409 41.6427 12.9184 44.9392 12.3731 48.3004C12.2436 49.0989 12.7859 49.8513 13.5845 49.9808C13.6639 49.9937 13.7429 50 13.8208 50C14.5266 50 15.1484 49.4886 15.2651 48.7694C15.7283 45.9141 16.7431 43.1087 18.2275 40.5466C19.2649 41.2399 20.4196 41.8339 21.6829 42.3114C23.0706 42.836 24.5406 43.0961 26.0488 43.0961C28.4509 43.0961 30.95 42.4362 33.369 41.1343C38.8663 38.1754 43.1634 32.4257 44.5836 26.1288C45.6024 21.6113 45.8052 16.6372 45.1545 12.1228V12.1228ZM41.7256 25.4843C41.1101 28.2134 39.8495 30.8899 38.0801 33.2245C36.3662 35.486 34.2569 37.3292 31.9803 38.5546C28.801 40.2658 25.5118 40.6266 22.7187 39.571C21.6561 39.1693 20.6954 38.6795 19.8382 38.1064C20.9117 36.6633 22.1112 35.3302 23.3896 34.0282C23.5208 33.9338 23.6344 33.8175 23.728 33.6859C24.7112 32.6987 25.7371 31.7253 26.7858 30.7308C27.6055 29.9536 28.4531 29.1498 29.2747 28.3413C29.9125 27.7138 30.5778 27.0391 31.2463 26.32L36.9161 25.4465C37.7157 25.3232 38.2639 24.5753 38.1408 23.7757C38.0176 22.9761 37.27 22.4281 36.47 22.551L34.0967 22.9166C35.6556 20.8101 37.0193 18.4344 37.8167 15.8053C38.0515 15.031 37.6143 14.2132 36.8401 13.9783C36.0656 13.7436 35.248 14.1807 35.0131 14.955C33.6303 19.5143 30.2977 23.2248 27.2201 26.253C26.4176 27.0426 25.58 27.8369 24.77 28.6051C24.4777 28.8822 24.1843 29.1607 23.8907 29.4404L23.7523 25.1657C23.7261 24.3571 23.0487 23.7243 22.2408 23.749C21.4322 23.7752 20.7979 24.4519 20.8241 25.2605L21.0498 32.2344C19.8417 33.4797 18.679 34.7825 17.6229 36.1801C17.3778 35.9018 17.1465 35.6133 16.9328 35.3119C15.7257 33.6101 15.0821 31.5828 15.0713 29.4491C15.0587 26.9242 15.9014 24.4143 17.5086 22.191C19.2473 19.7855 21.7887 17.8822 24.8581 16.6867C36.2754 12.2396 38.4504 7.04871 38.8673 3.32039C40.5052 5.44979 41.7002 8.69198 42.2549 12.5407C42.8558 16.71 42.6678 21.3069 41.7256 25.4843V25.4843ZM3.77611 22.0546C2.87191 17.0631 3.64994 11.5789 5.5851 8.4533C6.34447 11.9246 9.31518 14.7052 14.7832 17.1082C15.5724 17.455 16.2976 17.8743 16.9517 18.3509C16.2866 19.0142 15.6777 19.7228 15.1342 20.4748C14.5528 21.2792 14.0535 22.1167 13.6378 22.9781C13.5736 22.9098 13.5087 22.8415 13.4451 22.7733C12.1605 21.3968 11.215 20.2322 10.4694 19.1082C10.0221 18.434 9.11303 18.25 8.43891 18.6972C7.76469 19.1445 7.5807 20.0535 8.02797 20.7277C8.86498 21.9896 9.9058 23.2748 11.3032 24.7722C11.7096 25.2078 12.1252 25.6408 12.5353 26.0652C12.2694 27.1818 12.136 28.32 12.1416 29.4638C12.1458 30.2986 12.2257 31.1121 12.3732 31.9011C11.5076 31.7167 10.6283 31.3664 9.76684 30.8542C6.77348 29.0745 4.42201 25.6204 3.77611 22.0546V22.0546Z" fill="#917D7C" fill-opacity="0.7"/>
</svg>
